<?xml version="1.0" standalone="no"?>
<!DOCTYPE svg PUBLIC "-//W3C//DTD SVG 20010904//EN"
 "http://www.w3.org/TR/2001/REC-SVG-20010904/DTD/svg10.dtd">
<svg version="1.0" xmlns="http://www.w3.org/2000/svg"
 width="1093.000000pt" height="1093.000000pt" viewBox="0 0 1093.000000 1093.000000"
 preserveAspectRatio="xMidYMid meet">

<g transform="translate(0.000000,1093.000000) scale(0.100000,-0.100000)"
fill="#000000" stroke="none">
<path d="M2 5468 l3 -5463 5463 -3 5462 -2 0 5465 0 5465 -5465 0 -5465 0 2
-5462z m1091 5260 c200 -128 371 -250 536 -382 69 -56 130 -104 135 -108 12
-8 6 -16 -299 -377 -132 -156 -269 -318 -304 -360 -35 -42 -83 -98 -106 -126
-78 -91 -125 -150 -125 -156 0 -4 37 -38 83 -77 119 -102 370 -359 501 -514
27 -32 53 -58 58 -58 5 0 42 26 81 58 40 32 135 109 212 172 77 62 228 183
335 269 107 86 206 166 220 178 63 55 166 133 175 133 6 0 21 -16 35 -34 14
-19 64 -85 111 -147 239 -317 486 -731 649 -1089 83 -180 180 -419 180 -440 0
-17 -20 -24 -860 -335 -124 -46 -253 -93 -288 -106 -34 -12 -65 -26 -68 -30
-3 -5 18 -82 47 -171 62 -195 130 -463 155 -610 14 -83 22 -108 34 -108 8 0
301 47 650 104 349 57 636 103 638 101 1 -1 11 -64 22 -141 69 -499 77 -1052
20 -1544 -20 -175 -37 -290 -42 -295 -2 -2 -25 1 -53 5 -27 5 -180 30 -340 55
-159 26 -427 69 -593 96 -167 27 -308 47 -313 43 -5 -3 -9 -15 -9 -26 0 -80
-106 -509 -180 -728 -22 -64 -40 -122 -40 -127 0 -5 39 -23 88 -40 48 -17 191
-69 317 -116 127 -46 363 -133 525 -192 162 -60 297 -110 299 -111 10 -8 -133
-349 -235 -561 -183 -379 -481 -854 -706 -1125 l-39 -47 -357 287 c-461 370
-599 482 -631 509 -14 12 -30 22 -36 22 -5 0 -41 -39 -80 -86 -79 -97 -395
-420 -498 -509 l-68 -59 152 -180 c203 -241 505 -596 606 -714 45 -53 83 -102
83 -108 1 -42 -742 -578 -801 -578 -7 0 -50 63 -96 140 -73 122 -82 141 -68
150 184 112 445 293 445 307 0 6 -82 121 -183 256 -514 692 -587 791 -587 799
0 4 33 33 72 63 293 222 629 564 857 873 40 53 76 97 82 97 5 0 116 -75 247
-167 130 -92 365 -256 522 -366 157 -110 290 -204 296 -208 20 -16 242 335
393 620 44 84 81 155 81 157 0 2 18 40 40 85 22 45 40 87 40 94 0 6 -100 56
-222 110 -123 54 -293 129 -378 167 -231 104 -332 149 -467 208 -68 30 -123
58 -123 63 0 6 22 64 49 131 152 373 264 813 306 1204 4 36 12 62 18 62 7 0
127 -11 267 -25 676 -66 1030 -98 1034 -94 2 2 9 94 15 204 14 245 14 469 1
680 -6 88 -11 175 -12 193 -1 21 -7 32 -18 32 -15 0 -312 -28 -963 -91 -180
-18 -329 -30 -332 -27 -3 3 -12 60 -20 127 -47 374 -158 795 -304 1149 -50
122 -50 123 -28 131 12 5 69 30 127 56 106 48 887 396 993 443 31 14 57 29 57
34 0 28 -214 438 -328 628 -66 109 -214 330 -222 330 -3 0 -49 -30 -101 -67
-52 -36 -116 -82 -144 -101 -27 -20 -225 -159 -439 -309 -313 -221 -391 -272
-401 -261 -6 7 -47 60 -90 118 -199 264 -497 572 -755 779 -85 69 -154 129
-152 133 3 10 100 144 324 446 278 374 434 586 441 599 8 12 -166 139 -348
253 -55 35 -102 64 -103 66 -2 1 29 56 68 121 100 164 99 163 111 163 5 0 61
-32 122 -72z m7807 -2411 c0 -162 -3 -213 -16 -251 -20 -58 -60 -86 -121 -86
-39 0 -43 2 -43 25 0 22 4 25 38 25 82 1 92 32 92 279 0 109 3 201 7 204 3 4
15 7 25 7 17 0 18 -13 18 -203z m372 37 c119 -61 107 -308 -18 -360 -42 -18
-115 -18 -157 0 -126 52 -141 262 -25 349 50 37 139 42 200 11z m382 12 c18
-8 41 -24 50 -37 l16 -23 28 27 c62 60 155 54 199 -12 21 -32 23 -44 23 -182
l0 -149 -24 0 -25 0 -3 149 c-3 127 -6 152 -21 169 -24 26 -58 32 -96 16 -50
-21 -61 -56 -61 -204 l0 -130 -27 0 -28 0 0 144 c0 139 -1 145 -24 170 -17 18
-35 26 -58 26 -83 0 -103 -41 -103 -215 l0 -125 -25 0 -25 0 0 191 0 190 23
-3 c14 -2 23 -11 25 -26 l4 -24 23 22 c19 18 60 36 88 39 4 1 23 -5 41 -13z
m678 -12 c98 -50 114 -238 29 -323 -74 -74 -204 -68 -266 13 -70 93 -44 258
49 308 54 29 133 30 188 2z m-2547 -857 c0 -64 2 -117 5 -117 3 0 52 54 110
120 86 98 110 120 133 120 15 0 27 -4 27 -8 0 -4 -50 -63 -111 -130 -92 -102
-108 -124 -97 -135 28 -29 176 -194 202 -224 l28 -33 -35 0 c-33 0 -44 10
-143 123 -59 67 -110 123 -113 125 -3 1 -5 -54 -3 -123 l3 -125 -25 0 -26 0 0
266 0 265 23 -3 c21 -3 22 -6 22 -121z m1945 23 l0 -50 45 0 c41 0 45 -2 45
-25 0 -23 -4 -25 -45 -25 l-45 0 0 -134 c0 -152 8 -172 61 -161 25 6 29 3 29
-14 0 -36 -69 -41 -115 -7 -18 13 -20 28 -23 165 l-3 150 -32 3 c-24 2 -32 8
-32 23 0 15 8 21 33 23 31 3 32 5 32 46 0 47 5 56 32 56 15 0 18 -8 18 -50z
m240 0 l0 -50 45 0 c41 0 45 -2 45 -25 0 -23 -4 -25 -45 -25 l-45 0 0 -134 c0
-152 8 -172 61 -161 25 6 29 3 29 -14 0 -36 -69 -41 -115 -7 -18 13 -20 28
-23 165 l-3 150 -32 3 c-24 2 -32 8 -32 23 0 15 8 21 33 23 31 3 32 5 32 46 0
47 5 56 32 56 15 0 18 -8 18 -50z m-1609 -71 c33 -23 59 -86 59 -139 l0 -40
-130 0 -130 0 0 -25 c0 -35 24 -79 56 -104 34 -27 88 -27 139 -1 48 25 45 25
45 -3 0 -49 -144 -75 -210 -39 -97 53 -116 231 -34 322 54 60 143 72 205 29z
m407 5 c42 -27 52 -71 52 -224 l0 -140 -25 0 -25 0 0 129 c0 135 -10 185 -40
201 -28 15 -83 12 -108 -6 -43 -30 -52 -64 -52 -199 l0 -125 -25 0 -25 0 0
191 0 190 23 -3 c16 -2 23 -11 25 -31 3 -27 3 -27 20 -7 38 46 127 58 180 24z
m724 5 c44 -23 52 -55 56 -215 l4 -154 -26 0 c-21 0 -26 5 -26 25 0 28 -15 34
-24 10 -8 -21 -67 -45 -108 -45 -84 0 -137 81 -103 154 24 51 48 64 140 77 44
7 83 15 87 18 13 11 -12 80 -32 91 -35 19 -150 2 -150 -22 0 -4 -4 -8 -10 -8
-18 0 -11 49 9 60 54 28 139 32 183 9z m868 -8 c37 -26 48 -80 49 -228 l1
-133 -25 0 c-20 0 -25 5 -25 26 l0 26 -30 -26 c-56 -47 -152 -47 -189 0 -31
39 -35 79 -14 122 22 45 53 61 152 76 74 12 76 13 74 40 -1 16 -9 39 -18 52
-13 20 -24 24 -63 24 -28 0 -62 -8 -85 -20 l-37 -20 0 25 c0 56 145 81 210 36z
m-1380 -128 c29 -82 56 -154 60 -161 4 -8 24 35 50 105 66 178 78 203 100 203
11 0 20 -6 20 -14 0 -30 -190 -481 -213 -503 -24 -24 -81 -43 -104 -36 -7 3
-13 13 -13 24 0 15 7 19 30 19 38 0 69 31 91 92 l17 44 -69 174 c-38 96 -68
181 -69 188 0 6 10 12 23 12 21 0 29 -15 77 -147z m1490 -593 c0 -16 -7 -20
-35 -20 -52 0 -75 -28 -75 -90 l0 -50 43 0 c51 0 60 -6 46 -32 -8 -15 -19 -19
-47 -16 l-37 3 -3 -168 -2 -167 -25 0 -25 0 0 169 0 168 -22 -4 c-30 -5 -52
11 -45 31 4 10 18 16 37 16 29 0 30 2 30 45 0 54 21 109 47 124 10 6 39 11 66
11 40 0 47 -3 47 -20z m-2969 -16 c17 -21 0 -49 -32 -49 -18 0 -25 6 -27 24
-6 38 34 55 59 25z m1460 0 c17 -21 0 -49 -32 -49 -18 0 -25 6 -27 24 -6 38
34 55 59 25z m-2370 -176 c1 -212 9 -252 58 -285 49 -33 129 -32 168 1 45 38
53 83 53 285 l0 182 23 -3 c22 -3 22 -3 22 -208 0 -229 -4 -245 -70 -295 -46
-36 -136 -45 -200 -21 -35 14 -51 28 -73 64 -27 46 -27 50 -30 240 -2 106 -1
199 2 207 3 8 15 15 26 15 19 0 20 -6 21 -182z m2559 82 l0 -50 44 0 c35 0 45
-4 49 -20 6 -23 -26 -36 -68 -28 l-25 5 0 -136 c0 -75 4 -143 9 -151 6 -8 24
-14 45 -13 29 1 36 -3 36 -17 0 -23 -32 -34 -76 -26 -57 11 -64 32 -64 193 l0
142 -32 3 c-25 2 -33 8 -33 23 0 15 8 21 33 23 31 3 32 4 32 53 0 46 2 49 25
49 23 0 25 -3 25 -50z m-1863 -65 c43 -28 53 -71 53 -225 l0 -140 -25 0 -25 0
0 135 c0 177 -13 205 -94 205 -17 0 -42 -7 -54 -16 -43 -30 -52 -64 -52 -199
l0 -125 -25 0 -25 0 0 191 0 190 23 -3 c15 -2 23 -11 25 -29 l3 -26 30 28 c16
15 40 30 52 32 35 8 87 -1 114 -18z m904 -6 c33 -23 59 -86 59 -139 l0 -40
-131 0 -132 0 6 -42 c12 -89 113 -136 192 -89 45 26 45 26 45 -3 0 -50 -140
-75 -210 -37 -128 67 -105 324 32 369 42 13 106 5 139 -19z m608 6 c7 -7 11
-21 8 -30 -5 -12 -11 -14 -26 -5 -31 16 -102 12 -123 -7 -21 -19 -23 -52 -5
-75 6 -9 38 -29 70 -44 67 -31 97 -64 97 -108 0 -62 -55 -106 -134 -106 -66 0
-96 14 -96 46 0 17 4 24 13 20 87 -36 145 -30 161 17 14 39 1 56 -75 94 -78
40 -99 64 -99 113 0 47 23 76 75 95 44 16 112 11 134 -10z m1323 -1 c85 -44
112 -214 47 -306 -62 -86 -212 -91 -281 -10 -51 61 -56 199 -10 261 55 75 159
98 244 55z m-2624 -176 l2 -188 -25 0 -25 0 0 191 0 190 23 -3 c22 -3 22 -5
25 -190z m119 180 c5 -7 24 -56 43 -108 18 -52 42 -119 53 -149 l20 -55 29 80
c81 225 90 245 112 242 12 -2 21 -7 21 -13 0 -5 -31 -90 -70 -187 -65 -165
-72 -178 -95 -178 -23 0 -30 13 -92 179 -38 98 -68 183 -68 190 0 15 35 14 47
-1z m784 -28 c4 -19 7 -29 8 -22 3 30 50 62 91 62 36 0 40 -3 40 -24 0 -23 -3
-24 -35 -19 -30 5 -39 1 -63 -25 -36 -39 -42 -66 -42 -203 l0 -109 -25 0 -25
0 0 191 0 190 23 -3 c16 -2 24 -12 28 -38z m557 -152 l2 -188 -25 0 -25 0 0
191 0 190 23 -3 c22 -3 22 -5 25 -190z m359 180 c6 -7 34 -80 63 -162 41 -113
56 -145 62 -130 4 10 32 82 62 159 43 114 58 141 75 143 14 2 21 -2 21 -13 0
-14 -116 -308 -176 -447 -22 -50 -62 -85 -105 -93 -29 -5 -38 -3 -43 10 -9 24
1 35 30 35 14 0 35 11 47 24 30 33 59 113 48 134 -14 27 -131 332 -131 342 0
14 36 12 47 -2z m-1629 -990 l2 -278 -25 0 -25 0 0 281 0 280 23 -3 22 -3 3
-277z m2702 2 l0 -280 -25 0 c-20 0 -25 5 -25 27 l0 26 -22 -20 c-53 -48 -129
-58 -185 -23 -69 41 -99 180 -60 271 22 50 77 96 125 104 44 7 108 -14 130
-42 10 -14 12 3 12 93 0 61 3 114 7 117 3 4 15 7 25 7 17 0 18 -15 18 -280z
m-3619 244 c17 -21 0 -49 -32 -49 -27 0 -37 28 -19 50 16 19 34 19 51 -1z
m-981 -69 c15 -38 41 -106 58 -150 16 -44 46 -120 65 -170 54 -140 53 -135 20
-135 -26 0 -30 5 -53 73 l-25 72 -116 3 -115 3 -26 -73 c-22 -64 -29 -73 -52
-76 -14 -2 -26 1 -26 6 0 11 177 477 192 505 5 11 18 17 30 15 16 -2 28 -21
48 -73z m2090 -25 l0 -50 45 0 c41 0 45 -2 45 -25 0 -23 -4 -25 -45 -25 l-45
0 0 -134 c0 -152 8 -173 62 -162 23 4 28 2 28 -14 0 -23 -31 -34 -76 -26 -57
11 -64 32 -64 193 l0 142 -32 3 c-25 2 -33 8 -33 23 0 15 8 21 33 23 31 3 32
5 32 46 0 47 5 56 32 56 15 0 18 -8 18 -50z m-1630 -63 c8 -7 19 -19 24 -27 8
-12 11 -10 16 10 4 16 14 26 28 28 l22 3 0 -208 c0 -197 -1 -211 -22 -253 -40
-78 -115 -109 -218 -90 -65 12 -70 16 -70 46 0 24 1 24 30 9 16 -8 55 -15 90
-15 54 0 64 3 97 33 32 30 37 40 41 93 l4 59 -31 -29 c-38 -37 -120 -47 -169
-22 -112 58 -117 288 -8 356 48 30 132 33 166 7z m853 12 c30 -8 37 -14 37
-36 0 -20 -3 -24 -17 -17 -10 4 -41 9 -69 12 -46 3 -55 0 -87 -27 -67 -59 -71
-185 -7 -246 36 -34 96 -43 141 -21 41 20 39 21 39 -8 0 -28 -40 -46 -102 -46
-144 0 -219 163 -143 310 19 36 63 67 111 79 53 12 54 12 97 0z m1819 -15 c37
-19 68 -82 68 -139 l0 -45 -134 0 -134 0 10 -42 c19 -88 101 -129 183 -92 22
10 43 20 48 22 4 2 7 -7 7 -21 0 -49 -133 -75 -206 -41 -116 55 -119 293 -4
354 59 32 106 33 162 4z m588 -3 c39 -28 49 -73 49 -224 l1 -138 -27 3 c-23 2
-27 7 -25 27 l4 24 -31 -26 c-57 -47 -153 -48 -190 -1 -31 39 -35 79 -14 122
22 45 53 61 150 76 40 6 74 15 73 19 0 4 0 17 0 30 0 63 -82 87 -160 47 l-40
-20 0 24 c0 57 145 82 210 37z m407 4 c43 -28 53 -71 53 -225 l0 -140 -25 0
-25 0 0 135 c0 177 -13 205 -94 205 -17 0 -42 -7 -54 -16 -43 -30 -52 -64 -52
-199 l0 -125 -25 0 -25 0 0 191 0 190 23 -3 c16 -2 23 -11 25 -31 l3 -28 20
25 c36 46 122 56 176 21z m-3409 -18 l3 -27 30 30 c24 23 39 30 70 30 35 0 39
-3 39 -24 0 -22 -3 -24 -33 -19 -42 6 -83 -25 -97 -75 -5 -20 -10 -88 -10
-149 l0 -113 -25 0 -25 0 0 191 0 190 23 -3 c16 -2 23 -11 25 -31z m260 -159
l2 -188 -25 0 -25 0 0 191 0 190 23 -3 c22 -3 22 -5 25 -190z m502 62 c0 -147
12 -194 55 -210 44 -17 73 -11 107 19 l33 29 5 144 c5 139 6 143 28 146 l22 3
0 -190 0 -191 -26 0 c-23 0 -26 4 -22 25 l5 24 -29 -24 c-36 -31 -67 -39 -120
-32 -48 7 -85 38 -98 86 -11 40 -14 284 -3 294 3 4 15 7 25 7 17 0 18 -11 18
-130z m810 0 c0 -149 12 -194 57 -211 39 -14 85 -3 114 27 22 24 24 35 29 167
5 138 6 142 28 145 l22 3 0 -190 0 -191 -25 0 c-20 0 -25 5 -25 26 l0 25 -24
-28 c-22 -25 -30 -28 -89 -28 -114 0 -137 41 -137 246 0 69 3 129 7 132 3 4
15 7 25 7 17 0 18 -11 18 -130z m428 97 l3 -27 30 30 c24 23 39 30 70 30 35 0
39 -3 39 -24 0 -22 -3 -24 -33 -19 -42 6 -83 -25 -97 -75 -5 -20 -10 -88 -10
-149 l0 -113 -25 0 -25 0 0 191 0 190 23 -3 c16 -2 23 -11 25 -31z m-580 -811
l3 -118 26 26 c58 59 156 52 200 -13 21 -32 23 -44 23 -182 l0 -149 -25 0 -25
0 0 135 c0 177 -13 205 -94 205 -17 0 -42 -7 -54 -16 -43 -30 -52 -64 -52
-199 l0 -125 -25 0 -25 0 0 281 0 280 23 -3 c21 -3 22 -7 25 -122z m1250 -158
l2 -278 -25 0 -25 0 0 281 0 280 23 -3 22 -3 3 -277z m-2028 227 c0 -24 -2
-25 -75 -25 l-75 0 0 -240 0 -240 -25 0 -25 0 0 240 0 240 -75 0 c-73 0 -75 1
-75 25 l0 25 175 -1 175 0 0 -24z m220 -138 c34 -16 70 -91 70 -144 l0 -43
-130 0 -130 0 0 -26 c0 -44 29 -91 67 -109 40 -19 107 -14 139 10 27 20 34 18
34 -9 0 -50 -127 -73 -207 -37 -102 47 -121 242 -31 328 56 52 119 62 188 30z
m403 7 c10 -3 17 -15 17 -30 0 -24 -14 -32 -25 -14 -3 6 -30 10 -59 10 -89 0
-139 -58 -139 -161 0 -116 85 -178 188 -135 34 15 35 14 35 -9 0 -27 -40 -45
-102 -45 -144 0 -219 163 -143 310 36 70 133 102 228 74z m765 -11 c42 -26 52
-70 52 -223 l0 -140 -25 0 -25 0 0 129 c0 181 -14 211 -98 211 -40 0 -66 -20
-91 -67 -6 -13 -11 -74 -11 -147 l0 -126 -25 0 -25 0 0 191 0 190 23 -3 c16
-2 23 -11 25 -30 l3 -28 22 26 c38 43 121 52 175 17z m414 1 c119 -61 107
-308 -18 -360 -42 -18 -115 -18 -157 0 -126 52 -141 262 -25 349 50 37 139 42
200 11z m600 0 c92 -47 113 -225 37 -317 -64 -77 -213 -74 -277 7 -45 58 -48
196 -4 255 55 75 159 98 244 55z m357 20 c17 -4 42 -18 56 -32 l25 -25 0 27
c0 21 5 26 25 26 l25 0 0 -202 c0 -112 -5 -220 -10 -240 -24 -83 -134 -132
-240 -106 -48 11 -55 16 -58 40 l-3 28 35 -15 c47 -20 131 -19 166 1 35 21 60
73 60 126 l0 41 -22 -20 c-36 -32 -63 -43 -110 -43 -92 0 -151 74 -151 190 -1
140 86 227 202 204z m250 -20 c4 -5 27 -62 50 -127 72 -202 58 -199 126 -20
51 132 63 157 83 160 28 4 28 -13 3 -70 -10 -23 -51 -125 -91 -226 -75 -189
-109 -243 -156 -255 -36 -9 -64 2 -64 25 0 14 7 19 26 19 42 0 63 18 89 75
l24 55 -70 180 c-38 99 -69 185 -69 190 0 12 37 8 49 -6z m-3154 -1049 c29
-14 60 -36 69 -50 15 -23 14 -25 -23 -54 -21 -17 -42 -31 -46 -31 -4 0 -20 11
-37 25 -42 35 -118 35 -153 0 -14 -13 -25 -28 -25 -33 0 -25 48 -65 117 -97
41 -19 92 -48 112 -64 109 -87 106 -257 -5 -334 -59 -41 -151 -48 -219 -18
-61 27 -80 44 -117 100 -38 61 -37 78 10 90 57 16 65 14 91 -29 49 -79 160
-89 197 -18 34 65 -3 113 -139 177 -67 32 -94 51 -117 83 -55 76 -52 155 8
220 69 73 171 85 277 33z m528 -198 c110 -65 153 -186 111 -310 -21 -63 -95
-131 -165 -151 -69 -21 -98 -20 -159 3 -73 28 -114 63 -144 123 -33 65 -36
161 -7 224 22 49 96 114 149 131 60 20 163 10 215 -20z m530 17 c46 -16 47
-16 47 -60 0 -24 -4 -44 -8 -44 -5 0 -30 7 -56 16 -100 34 -196 3 -236 -76
-44 -86 -11 -173 82 -221 47 -24 101 -24 157 1 24 11 47 20 52 20 5 0 9 -20 9
-46 0 -41 -3 -46 -32 -59 -129 -53 -277 -4 -341 113 -39 72 -44 133 -17 204
24 64 95 137 152 155 50 16 139 15 191 -3z m1892 -3 c124 -56 182 -183 143
-313 -15 -50 -79 -123 -132 -150 -58 -30 -165 -30 -222 0 -94 49 -143 127
-144 230 0 93 29 151 104 205 68 49 179 61 251 28z m-1717 -233 l2 -238 -45 0
-45 0 0 233 c0 129 3 237 7 241 4 4 23 6 43 4 l35 -3 3 -237z m342 197 l0 -45
-96 0 -95 0 3 -42 3 -43 93 -3 92 -3 0 -42 0 -42 -92 0 -93 0 0 -65 0 -65 93
-3 92 -3 0 -39 0 -40 -135 0 -135 0 0 233 c0 129 3 237 7 240 3 4 64 7 135 7
l128 0 0 -45z m315 0 l0 -40 -52 -3 -53 -3 0 -195 0 -194 -40 0 -40 0 0 195 0
195 -55 0 -55 0 0 45 0 46 148 -3 147 -3 0 -40z m158 -40 c26 -44 50 -79 53
-78 4 1 26 35 51 75 25 40 51 76 57 80 14 10 74 10 79 1 2 -5 -29 -62 -69
-128 l-73 -120 -1 -112 0 -113 -45 0 -45 0 0 109 0 110 -70 120 c-38 66 -70
125 -70 131 0 7 16 10 42 8 41 -3 43 -5 91 -83z m1387 40 l0 -45 -95 0 -95 0
0 -45 0 -45 95 0 95 0 0 -40 0 -39 -92 -3 -93 -3 -3 -107 -3 -108 -39 0 -40 0
0 233 c0 129 3 237 7 240 3 4 64 7 135 7 l128 0 0 -45z m-3852 -822 l3 -53
-135 0 -136 0 0 -70 0 -69 133 -3 132 -3 3 -52 3 -53 -135 0 -136 0 0 -100 0
-99 133 -3 132 -3 3 -52 3 -53 -190 0 -191 0 0 335 0 335 188 -2 187 -3 3 -52z
m268 -324 l113 -115 3 150 3 151 38 3 37 3 0 -258 0 -258 -160 165 -159 165
-1 -147 0 -148 -45 0 -45 0 0 243 c0 134 3 246 6 250 4 3 27 -15 52 -41 24
-26 96 -99 158 -163z m1167 25 l136 -141 3 151 3 151 38 3 37 3 0 -258 0 -258
-160 165 -159 165 -1 -147 0 -148 -45 0 -45 0 0 243 c0 134 3 246 6 250 7 7 7
7 187 -179z m1482 144 c50 -56 266 -278 271 -278 2 0 5 66 6 148 l3 147 38 3
37 3 0 -258 0 -258 -160 165 -159 165 -1 -147 0 -148 -45 0 -45 0 0 250 c0
138 4 250 9 250 5 0 26 -19 46 -42z m-2043 16 c25 -8 63 -30 83 -47 l37 -33
-26 -31 -27 -32 -44 31 c-57 40 -142 50 -200 23 -72 -35 -110 -130 -80 -201
21 -51 42 -73 90 -95 71 -33 145 -22 198 29 43 41 36 54 -28 50 l-55 -3 0 43
0 42 106 0 106 0 -4 -54 c-9 -106 -81 -186 -188 -206 -135 -26 -256 36 -306
155 -20 49 -18 151 5 200 24 52 86 111 136 129 53 19 141 20 197 0z m2810 0
c25 -8 63 -30 85 -49 l38 -33 -24 -26 c-31 -33 -36 -32 -90 4 -80 54 -197 36
-246 -39 -50 -76 -36 -164 33 -223 62 -52 174 -48 229 7 47 47 43 57 -22 53
l-55 -3 0 43 0 42 106 0 106 0 -4 -54 c-9 -108 -82 -186 -192 -207 -134 -24
-260 43 -305 164 -17 45 -13 147 8 192 22 48 97 118 143 132 50 16 139 15 190
-3z m-2514 -236 l2 -238 -45 0 -45 0 0 233 c0 129 3 237 7 241 4 4 23 6 43 4
l35 -3 3 -237z m822 197 l0 -45 -95 0 -95 0 0 -45 0 -45 95 0 95 0 0 -40 0
-39 -92 -3 -93 -3 -3 -67 -3 -68 96 0 95 0 0 -40 0 -40 -135 0 -135 0 0 240 0
240 135 0 135 0 0 -45z m310 0 l0 -45 -95 0 -95 0 0 -45 0 -45 95 0 95 0 0
-42 0 -43 -92 0 -93 0 -3 -67 -3 -68 96 0 95 0 0 -40 0 -40 -135 0 -135 0 0
240 0 240 135 0 135 0 0 -45z m256 22 c58 -30 79 -63 79 -124 0 -50 -3 -57
-36 -86 -19 -18 -44 -37 -54 -43 -17 -9 -14 -17 39 -93 78 -113 77 -111 22
-111 l-46 0 -57 87 -58 86 -3 -86 -3 -87 -44 0 -45 0 0 233 c0 129 3 237 8
241 12 13 166 0 198 -17z m232 -219 l2 -238 -45 0 -45 0 0 233 c0 129 3 237 7
241 4 4 23 6 43 4 l35 -3 3 -237z m-1735 -568 c29 -11 68 -35 86 -52 l33 -32
-38 -33 c-22 -18 -43 -33 -47 -33 -5 0 -23 11 -41 25 -54 41 -141 32 -166 -16
-18 -33 11 -64 103 -110 112 -57 150 -89 177 -151 60 -140 -34 -288 -185 -288
-96 0 -165 38 -216 118 -39 62 -38 79 9 91 57 16 65 14 91 -29 50 -80 169 -86
201 -9 25 59 -12 105 -129 162 -121 58 -171 117 -171 205 0 61 58 133 126 157
55 20 105 18 167 -5z m1742 -212 c20 -23 90 -98 155 -165 l119 -123 3 153 3
152 38 3 37 3 0 -258 0 -258 -156 163 c-86 89 -159 162 -162 162 -4 0 -6 -65
-4 -145 l3 -145 -45 0 -46 0 0 250 c0 138 4 250 9 250 5 0 25 -19 46 -42z
m962 17 c42 -18 73 -43 72 -59 0 -6 -14 -22 -30 -35 l-30 -23 -23 21 c-26 25
-87 29 -106 6 -22 -27 -6 -50 65 -87 38 -20 82 -50 97 -67 73 -82 34 -213 -73
-241 -43 -12 -104 -1 -146 27 -20 13 -73 89 -73 105 0 3 19 10 42 17 36 11 42
11 51 -4 30 -55 83 -77 122 -51 27 18 33 60 12 87 -7 8 -45 33 -84 53 -81 42
-113 82 -113 137 1 102 110 159 217 114z m-2232 -40 l0 -40 -52 -3 -53 -3 0
-195 0 -194 -42 0 -43 0 3 195 3 195 -56 0 -55 0 0 45 0 46 148 -3 147 -3 0
-40z m125 -138 l5 -179 28 -24 c47 -41 124 -28 152 25 12 24 15 66 15 196 l0
165 40 0 40 0 0 -178 c0 -165 -2 -181 -22 -222 -13 -24 -35 -52 -49 -63 -63
-46 -178 -41 -233 11 -51 48 -59 82 -64 259 -2 89 -2 170 2 178 4 12 16 15 43
13 l38 -3 5 -178z m585 159 c89 -37 139 -116 139 -216 0 -76 -20 -125 -72
-176 -46 -45 -114 -64 -224 -64 l-88 0 0 233 c0 129 3 237 8 241 12 14 195 -1
237 -18z m465 -21 l0 -45 -95 0 -95 0 0 -45 0 -45 95 0 95 0 0 -40 0 -39 -92
-3 -93 -3 0 -65 0 -65 93 -3 92 -3 0 -39 0 -40 -135 0 -135 0 0 233 c0 129 3
237 7 240 3 4 64 7 135 7 l128 0 0 -45z m795 0 l0 -40 -52 -3 -53 -3 0 -195 0
-194 -40 0 -40 0 0 195 0 195 -55 0 -55 0 0 45 0 46 148 -3 147 -3 0 -40z"/>
<path d="M9098 8307 c-38 -32 -51 -64 -52 -127 0 -90 40 -144 117 -157 44 -7
97 18 119 55 41 70 29 183 -24 227 -40 34 -121 35 -160 2z"/>
<path d="M10170 8317 c-58 -29 -84 -154 -46 -225 45 -85 167 -96 215 -18 44
70 35 174 -19 228 -23 23 -37 28 -77 28 -26 0 -59 -6 -73 -13z"/>
<path d="M8212 7414 c-24 -17 -52 -64 -52 -89 0 -13 17 -15 105 -15 l105 0 0
26 c0 29 -16 64 -39 81 -23 17 -92 16 -119 -3z"/>
<path d="M9420 7274 c-70 -11 -98 -25 -110 -54 -25 -59 24 -109 93 -96 41 8
74 41 87 87 20 70 14 75 -70 63z"/>
<path d="M10270 7273 c-62 -10 -88 -25 -100 -54 -25 -58 24 -108 93 -95 41 8
74 41 87 87 20 70 11 77 -80 62z"/>
<path d="M8042 6514 c-24 -17 -52 -64 -52 -89 0 -13 17 -15 105 -15 l105 0 0
29 c0 17 -11 42 -26 60 -21 26 -33 31 -68 31 -23 0 -52 -7 -64 -16z"/>
<path d="M9958 6514 c-71 -38 -86 -173 -28 -247 11 -14 36 -31 56 -37 109 -36
192 59 166 190 -16 75 -54 110 -120 110 -26 -1 -59 -7 -74 -16z"/>
<path d="M10170 5617 c-85 -42 -84 -240 1 -285 38 -20 97 -8 133 27 29 29 31
37 35 116 l3 85 -35 35 c-28 28 -43 35 -73 35 -22 0 -50 -6 -64 -13z"/>
<path d="M5730 5738 c0 -10 -18 -65 -40 -123 -22 -58 -40 -110 -40 -115 0 -6
37 -10 90 -10 50 0 90 1 90 3 0 9 -82 232 -90 246 -8 14 -9 14 -10 -1z"/>
<path d="M6108 5607 c-39 -33 -51 -65 -52 -132 0 -71 21 -118 64 -140 37 -19
64 -19 105 1 46 22 65 66 65 154 0 69 -2 74 -34 106 -28 28 -41 34 -77 34 -31
0 -52 -7 -71 -23z"/>
<path d="M8782 5614 c-24 -17 -52 -64 -52 -89 0 -13 17 -15 105 -15 l105 0 0
31 c0 46 -47 89 -97 89 -21 0 -49 -7 -61 -16z"/>
<path d="M9400 5469 c-83 -16 -113 -85 -57 -133 27 -22 88 -17 119 11 25 22
48 73 48 108 0 22 -4 25 -32 24 -18 -1 -53 -5 -78 -10z"/>
<path d="M7232 4714 c-24 -17 -52 -64 -52 -89 0 -13 17 -15 105 -15 l105 0 0
26 c0 35 -29 81 -54 88 -38 10 -81 6 -104 -10z"/>
<path d="M8778 4707 c-38 -32 -51 -64 -52 -127 0 -90 40 -144 117 -157 44 -7
97 18 119 55 41 70 29 183 -24 227 -40 34 -121 35 -160 2z"/>
<path d="M9388 4714 c-39 -21 -61 -69 -62 -134 -1 -121 91 -191 188 -145 84
40 99 194 26 267 -24 23 -37 28 -77 28 -26 -1 -60 -7 -75 -16z"/>
<path d="M9802 4702 c-73 -68 -62 -226 18 -267 37 -19 61 -19 103 1 47 23 67
68 67 155 0 67 -2 73 -34 105 -29 29 -41 34 -79 34 -35 0 -51 -6 -75 -28z"/>
<path d="M7340 3442 c-76 -34 -120 -118 -100 -193 31 -114 159 -162 259 -96
98 65 93 218 -9 276 -38 21 -117 28 -150 13z"/>
<path d="M9771 3429 c-46 -28 -68 -56 -81 -101 -23 -81 32 -175 114 -198 191
-53 301 187 137 297 -45 30 -122 31 -170 2z"/>
<path d="M9030 2382 l0 -71 33 5 c51 10 77 31 77 63 0 35 -27 60 -74 68 l-36
6 0 -71z"/>
<path d="M8670 1286 l0 -157 48 6 c135 19 197 116 143 224 -26 51 -62 72 -132
78 l-59 6 0 -157z"/>
</g>
</svg>
